<svg xmlns="http://www.w3.org/2000/svg" version="1.1" xmlns:xlink="http://www.w3.org/1999/xlink" xmlns:svgjs="http://svgjs.dev/svgjs" width="1000" height="1000" viewBox="0 0 1000 1000"><rect width="1000" height="1000" fill="#ffffff"></rect><g transform="matrix(0.7,0,0,0.7,149.57576038586762,423.2366130184038)"><svg viewBox="0 0 396 87" data-background-color="#ffffff" preserveAspectRatio="xMidYMid meet" height="219" width="1000" xmlns="http://www.w3.org/2000/svg" xmlns:xlink="http://www.w3.org/1999/xlink"><g id="tight-bounds" transform="matrix(1,0,0,1,0.23999841028057745,0.06434877624835167)"><svg viewBox="0 0 395.52 86.87111581757799" height="86.87111581757799" width="395.52"><g><svg viewBox="0 0 547.0632968662928 120.15574186290903" height="86.87111581757799" width="395.52"><g transform="matrix(1,0,0,1,151.54329686629282,26.83904635442869)"><svg viewBox="0 0 395.52 66.47764915405165" height="66.47764915405165" width="395.52"><g><svg viewBox="0 0 395.52 66.47764915405165" height="66.47764915405165" width="395.52"><g><svg viewBox="0 0 395.52 66.47764915405165" height="66.47764915405165" width="395.52"><g transform="matrix(1,0,0,1,0,0)"><svg width="395.52" viewBox="0.20000000298023224 -36.130001068115234 219.30999755859375 36.86000061035156" height="66.47764915405165" data-palette-color="#373737"><path d="M30.42-21.39L30.71-4.98Q29.57-3.54 27.88-2.47 26.2-1.39 24.27-0.68 22.34 0.02 20.31 0.38 18.29 0.73 16.46 0.73L16.46 0.73Q12.92 0.73 9.94-0.54 6.96-1.81 4.8-4.04 2.64-6.27 1.42-9.3 0.2-12.33 0.2-15.82L0.2-15.82Q0.2-18.48 0.81-21.03 1.42-23.58 2.55-25.84 3.69-28.1 5.32-29.99 6.96-31.88 9.03-33.25 11.11-34.62 13.57-35.38 16.04-36.13 18.85-36.13L18.85-36.13Q19.9-36.13 21.09-36.05 22.29-35.96 23.47-35.75 24.66-35.55 25.78-35.18 26.9-34.81 27.83-34.28L27.83-34.28 27.15-24.95Q25.78-25.46 24.33-25.65 22.88-25.83 21.48-25.83L21.48-25.83Q19.53-25.83 17.83-25.23 16.14-24.63 14.88-23.51 13.62-22.39 12.89-20.78 12.16-19.17 12.16-17.14L12.16-17.14Q12.16-15.87 12.5-14.69 12.84-13.5 13.54-12.59 14.23-11.67 15.27-11.11 16.31-10.55 17.68-10.55L17.68-10.55Q18.6-10.55 19.59-10.79 20.58-11.04 21.29-11.62L21.29-11.62 21.39-13.53 15.53-13.62 15.82-20.95Q19.46-21.07 23.1-21.15 26.73-21.24 30.42-21.39L30.42-21.39ZM60.76-34.81L61.55 0 49.34 0.59 49.24-10.69 43.63-10.69 43.28 0 32.35 0 33.27-34.33 44.89-33.79 44.16-16.26 49.58-16.26 49.63-35.11 60.76-34.81ZM85.13-34.96L94.65-2.1 82.54-0.54 81.07-6.05 75.51-6.05 74.29-0.54 61.84-1.76 71.55-34.28 85.13-34.96ZM76.53-13.53L80.2-13.53 78.34-22.02 76.53-13.53ZM123.77-23.54L123.77-23.54Q123.77-21.63 123.44-20.08 123.11-18.53 122.4-17.24 121.7-15.94 120.57-14.84 119.45-13.75 117.86-12.74L117.86-12.74 123.67-2.39 112.69-0.24 108.93-10.64 105.9-10.55 105.46-0.39 94.96-0.39Q95.09-5.96 95.2-11.47 95.31-16.99 95.45-22.56L95.45-22.56Q95.5-25.37 95.55-28.13 95.6-30.88 95.74-33.69L95.74-33.69Q97.45-34.33 99.11-34.74 100.77-35.16 102.45-35.39 104.12-35.62 105.84-35.71 107.56-35.79 109.37-35.79L109.37-35.79Q112.15-35.79 114.75-35.02 117.35-34.25 119.35-32.71 121.35-31.18 122.56-28.88 123.77-26.59 123.77-23.54ZM112.83-22.75L112.83-22.75Q112.83-23.78 112.55-24.63 112.27-25.49 111.72-26.11 111.17-26.73 110.36-27.09 109.54-27.44 108.44-27.44L108.44-27.44Q107.95-27.44 107.49-27.38 107.02-27.32 106.58-27.2L106.58-27.2 106.19-18.12 106.78-18.12Q107.83-18.12 108.92-18.38 110-18.65 110.87-19.21 111.74-19.78 112.28-20.65 112.83-21.53 112.83-22.75ZM153.9-23.49L153.9-23.49Q153.9-21.12 153.19-19.29 152.48-17.46 151.25-16.09 150.01-14.72 148.35-13.77 146.69-12.82 144.8-12.22 142.91-11.62 140.88-11.34 138.86-11.06 136.9-11.04L136.9-11.04 136.9 0.34 125.53 0.34Q125.53-5.25 125.55-10.79 125.58-16.33 125.62-21.97L125.62-21.97Q125.67-24.95 125.65-27.93 125.62-30.91 125.77-33.94L125.77-33.94Q128.9-34.86 132.02-35.33 135.15-35.79 138.47-35.79L138.47-35.79Q140.35-35.79 142.23-35.49 144.11-35.18 145.83-34.52 147.55-33.86 149.03-32.87 150.5-31.88 151.58-30.52 152.65-29.15 153.27-27.4 153.9-25.66 153.9-23.49ZM143.06-22.66L143.06-22.66Q143.06-24.24 142.09-25.13 141.13-26.03 139.59-26.03L139.59-26.03Q139.08-26.03 138.53-25.94 137.98-25.85 137.49-25.73L137.49-25.73 137.2-18.6Q137.54-18.55 137.86-18.55 138.17-18.55 138.52-18.55L138.52-18.55Q139.39-18.55 140.21-18.85 141.03-19.14 141.66-19.69 142.3-20.24 142.68-20.98 143.06-21.73 143.06-22.66ZM155.85-35.21L178.36-35.21Q178.21-32.91 178.09-30.66 177.97-28.42 177.77-26.12L177.77-26.12 167.42-25.59 167.18-22.51 174.45-22.51 173.91-14.94 166.59-14.7 166.34-11.13 172.4-11.13 176.7-11.13Q176.55-8.45 176.39-5.8 176.23-3.15 176.11-0.49L176.11-0.49 155.07 0 155.85-35.21ZM178.38-34.86L204.99-34.91 204.75-24.56 197.47-24.27 195.61-1.12 185.31-0.59 185.36-23.73 178.09-23.34 178.38-34.86ZM206.53-33.69L219.51-34.38 216.83-1.12 206.53-0.59 206.53-33.69Z" opacity="1" transform="matrix(1,0,0,1,0,0)" fill="#000000" class="undefined-text-0" data-fill-palette-color="primary" id="text-0"></path></svg></g></svg></g></svg></g></svg></g><g><svg viewBox="0 0 120.15574186290903 120.15574186290903" height="120.15574186290903" width="120.15574186290903"><g><svg></svg></g><g id="icon-0"><svg viewBox="0 0 120.15574186290903 120.15574186290903" height="120.15574186290903" width="120.15574186290903"><g><path d="M0 60.078c0-33.18 26.898-60.078 60.078-60.078 33.18 0 60.078 26.898 60.078 60.078 0 33.18-26.898 60.078-60.078 60.078-33.18 0-60.078-26.898-60.078-60.078zM60.078 114.161c29.869 0 54.083-24.214 54.083-54.083 0-29.869-24.214-54.083-54.083-54.083-29.869 0-54.083 24.214-54.083 54.083 0 29.869 24.214 54.083 54.083 54.083z" data-fill-palette-color="accent" fill="#000000" stroke="transparent"></path></g><g transform="matrix(1,0,0,1,26.45041466501337,29.335708024136647)"><svg viewBox="0 0 67.25491253288229 61.48432581463573" height="61.48432581463573" width="67.25491253288229"><g><svg xmlns="http://www.w3.org/2000/svg" xmlns:xlink="http://www.w3.org/1999/xlink" version="1.1" x="0" y="0" viewBox="2.9070000648498535 7.242979049682617 93.54100036621094 85.51502227783203" enable-background="new 0 0 100 100" xml:space="preserve" height="61.48432581463573" width="67.25491253288229" class="icon-a-0" data-fill-palette-color="accent" id="a-0"><path d="M96.444 51.752c0-2.453-2.041-4.114-2.041-4.114S51.489 8.226 50.924 7.662c-0.562-0.562-1.961-0.56-2.56 0.014-0.26 0.25-18.784 17.311-18.784 17.311V9.89H13.604v29.776c-5.093 4.685-8.651 7.972-8.651 7.972s-2.042 1.723-2.042 4.114l-0.004 9.252h7.475l0.009 31.754h28.223V72.66h22.128v20.098h28.223l0.01-31.754h7.473L96.444 51.752zM21.699 49.676c0 0 26.67-24.547 26.815-24.686 0.509-0.488 1.702-0.49 2.18-0.011 0.311 0.313 16.049 14.736 26.893 24.697H21.699z" fill="#000000" data-fill-palette-color="accent"></path></svg></g></svg></g></svg></g></svg></g></svg></g><defs></defs></svg><rect width="395.52" height="86.87111581757799" fill="none" stroke="none" visibility="hidden"></rect></g></svg></g></svg>